<svg xmlns="http://www.w3.org/2000/svg" viewBox="0 0 47.4 69" x="0px" y="0px"><title>badminton</title><path d="M183.7,20.6a9.9,9.9,0,0,1-.7-3.1V13.1c0-4.7,4.3-8.6,9-8.6s9,3.9,9,8.6v4.3a9.9,9.9,0,0,1-.7,3.1,2.4,2.4,0,0,0-1.8-.6H185.5A2.4,2.4,0,0,0,183.7,20.6Zm31.9,33.1-15-29.9a2,2,0,0,0-2.1-1.7H185.5a2,2,0,0,0-2.1,1.7l-15,30a1,1,0,0,0,.5,1.4h0.5a1.1,1.1,0,0,0,1-.6l13.6-26.7a2.6,2.6,0,0,0,1.6,1.2h3.6l-5.8,29.6a0.9,0.9,0,0,0,.9,1.1,0.9,0.9,0,0,0,1.3-.6L191.3,29h1.2l5.9,30a1,1,0,0,0,1.3.7,0.8,0.8,0,0,0,.9-1L194.8,29h3.7a2.6,2.6,0,0,0,1.6-1.2l13.6,26.9a1,1,0,0,0,1,.5l0.5-.2A1.1,1.1,0,0,0,215.6,53.6Z" transform="translate(-168.3 -4.5)"/></svg>